<svg width="24" height="24" viewBox="0 0 24 24" fill="none" xmlns="http://www.w3.org/2000/svg">
<path d="M11.75 12.9971L5.51437 19.2328C5.33621 19.4109 5.12835 19.5 4.8908 19.5C4.65326 19.5 4.4454 19.4109 4.26724 19.2328C4.08908 19.0546 4 18.8467 4 18.6092C4 18.3716 4.08908 18.1638 4.26724 17.9856L10.5029 11.75L4.26724 5.51437C4.08908 5.33621 4 5.12835 4 4.8908C4 4.65326 4.08908 4.4454 4.26724 4.26724C4.4454 4.08908 4.65326 4 4.8908 4C5.12835 4 5.33621 4.08908 5.51437 4.26724L11.75 10.5029L17.9856 4.26724C18.1638 4.08908 18.3716 4 18.6092 4C18.8467 4 19.0546 4.08908 19.2328 4.26724C19.4109 4.4454 19.5 4.65326 19.5 4.8908C19.5 5.12835 19.4109 5.33621 19.2328 5.51437L12.9971 11.75L19.2328 17.9856C19.4109 18.1638 19.5 18.3716 19.5 18.6092C19.5 18.8467 19.4109 19.0546 19.2328 19.2328C19.0546 19.4109 18.8467 19.5 18.6092 19.5C18.3716 19.5 18.1638 19.4109 17.9856 19.2328L11.75 12.9971Z" fill="black"/>
</svg>
