<svg width="24" height="24" viewBox="0 0 24 24" fill="none" xmlns="http://www.w3.org/2000/svg">
<path fill-rule="evenodd" clip-rule="evenodd" d="M13.2606 3.70592C12.6915 2.76469 11.3085 2.76469 10.7394 3.70592L2.20917 17.8129C1.62616 18.7771 2.33101 20 3.46978 20H20.5302C21.669 20 22.3738 18.7771 21.7908 17.8129L13.2606 3.70592ZM11.8854 4.37914C11.9371 4.29357 12.0629 4.29357 12.1146 4.37914L20.6448 18.4862C20.6979 18.5738 20.6337 18.685 20.5302 18.685H3.46978C3.36626 18.685 3.30218 18.5738 3.35518 18.4862L11.8854 4.37914ZM11.102 8.80451C11.0824 8.30235 11.4902 7.88471 12 7.88471C12.5099 7.88471 12.9176 8.30235 12.898 8.80452L12.6927 14.0656C12.6784 14.4324 12.3725 14.7226 12 14.7226C11.6275 14.7226 11.3216 14.4324 11.3073 14.0656L11.102 8.80451ZM13.0005 16.681C13.0005 17.2257 12.5525 17.6672 11.9999 17.6672C11.4472 17.6672 10.9993 17.2257 10.9993 16.681C10.9993 16.1364 11.4472 15.6948 11.9999 15.6948C12.5525 15.6948 13.0005 16.1364 13.0005 16.681Z" fill="#FF1E54"/>
</svg>
