<svg viewBox="0 0 24 24" fill="none" xmlns="http://www.w3.org/2000/svg">
<path fill-rule="evenodd" clip-rule="evenodd" d="M8.99955 3.5C9.55184 3.5 9.99955 3.94772 9.99955 4.5V8.99955C9.99955 9.55184 9.55184 9.99955 8.99955 9.99955H4.5C3.94772 9.99955 3.5 9.55184 3.5 8.99955C3.5 8.44727 3.94772 7.99955 4.5 7.99955H7.99955V4.5C7.99955 3.94772 8.44727 3.5 8.99955 3.5ZM14.999 3.5C15.5512 3.5 15.999 3.94772 15.999 4.5V7.99955H19.4985C20.0508 7.99955 20.4985 8.44727 20.4985 8.99955C20.4985 9.55184 20.0508 9.99955 19.4985 9.99955H14.999C14.4467 9.99955 13.999 9.55184 13.999 8.99955V4.5C13.999 3.94772 14.4467 3.5 14.999 3.5ZM3.5 14.999C3.5 14.4467 3.94772 13.999 4.5 13.999H8.99955C9.55184 13.999 9.99955 14.4467 9.99955 14.999V19.4985C9.99955 20.0508 9.55184 20.4985 8.99955 20.4985C8.44727 20.4985 7.99955 20.0508 7.99955 19.4985V15.999H4.5C3.94772 15.999 3.5 15.5512 3.5 14.999ZM13.999 14.999C13.999 14.4467 14.4467 13.999 14.999 13.999H19.4985C20.0508 13.999 20.4985 14.4467 20.4985 14.999C20.4985 15.5512 20.0508 15.999 19.4985 15.999H15.999V19.4985C15.999 20.0508 15.5512 20.4985 14.999 20.4985C14.4467 20.4985 13.999 20.0508 13.999 19.4985V14.999Z" fill="black"/>
</svg>
