<svg width="24" height="24" viewBox="0 0 24 24" fill="none" xmlns="http://www.w3.org/2000/svg">
<path d="M8.44444 4H5.77778C5.30628 4 4.8541 4.1873 4.5207 4.5207C4.1873 4.8541 4 5.30628 4 5.77778V8.44444M20 8.44444V5.77778C20 5.30628 19.8127 4.8541 19.4793 4.5207C19.1459 4.1873 18.6937 4 18.2222 4H15.5556M15.5556 20H18.2222C18.6937 20 19.1459 19.8127 19.4793 19.4793C19.8127 19.1459 20 18.6937 20 18.2222V15.5556M4 15.5556V18.2222C4 18.6937 4.1873 19.1459 4.5207 19.4793C4.8541 19.8127 5.30628 20 5.77778 20H8.44444" stroke="black" stroke-width="2" stroke-linecap="round" stroke-linejoin="round"/>
</svg>
